<?xml version="1.0" encoding="utf-8"?> <!-- Generator: IcoMoon.io --> <!DOCTYPE svg PUBLIC "-//W3C//DTD SVG 1.1//EN" "http://www.w3.org/Graphics/SVG/1.1/DTD/svg11.dtd"> <svg fill="#000000" xmlns:xlink="http://www.w3.org/1999/xlink" xmlns="http://www.w3.org/2000/svg" width="32" height="32" viewBox="0 0 32 32"><g><path d="M 31.008,27.231L 23.428,20.784c-0.784-0.705-1.622-1.029-2.299-0.998C 22.919,17.691, 24,14.972, 24,12 C 24,5.373, 18.627,0, 12,0C 5.373,0,0,5.373,0,12c0,6.627, 5.373,12, 12,12c 2.972,0, 5.691-1.081, 7.787-2.87 c-0.031,0.677, 0.292,1.515, 0.998,2.299l 6.447,7.58c 1.104,1.226, 2.907,1.33, 4.007,0.23S 32.235,28.335, 31.008,27.231z M 12,20c-4.418,0-8-3.582-8-8S 7.582,4, 12,4s 8,3.582, 8,8S 16.418,20, 12,20z"></path></g></svg>